# xmcd CD database file
#
# Track frame offsets:
#	150
#	10090
#	22745
#	34585
#	47647
#	69837
#	98257
#	120325
#	137525
#	147070
#	158940
#	172405
#	184987
#	199072
#	215417
#	227780
#	242782
#	260052
#	270682
#	284152
#
# Disc length: 4038 seconds
#
# Revision: 2
# Processed by: cddbd v1.5.2PL0 Copyright (c) Steve Scherf et al.
# Submitted via: CDex 2.14
#
DISCID=1a0fc414
DTITLE=United world Of Music - White Blues
DYEAR=2001
DGENRE=Blues
TTITLE0=John Mayall and The Bluesbreakers - I'm Your Witchdoctor
TTITLE1=Fleetwood Mac - Man Of The World
TTITLE2=The Yardbirds - I'm A Man
TTITLE3=Downliners Sect - Baby What's Wrong
TTITLE4=The Animals - Boom Boom
TTITLE5=Chris Farlowe - (They Call It) Stormy Monday Blues, Pts 1 and 2
TTITLE6=Peter Green - Stranger Blues
TTITLE7=Graham Bond Organisation (Feat. Jack Bruce) - Train Time
TTITLE8=Eric Clapton - Tribute To Elmore
TTITLE9=The All Stars (Feat. Jeff Beck) - Steelin'
TTITLE10=Savoy Brown Blues Band - I Tried
TTITLE11=Eric Clapton and Jimmy Page - Freight Loader
TTITLE12=Jeremy Spencer - Lookin' Down At My Woman
TTITLE13=Dave Kelly - Married Woman Blues
TTITLE14=The Steampacket - Cry Me A River
TTITLE15=Spencer Davis R&B Quartet - Dimples
TTITLE16=Albert Lee and Tony Colton - The Next Milestone
TTITLE17=T.S. McPhee - You Don't Love Me
TTITLE18=The All Stars (Feat. Nicky Hopkins) - Piano Shuffle
TTITLE19=Roy Buchanan - Hey Joe
EXTD=John Boy YEAR: 2001
EXTT0=
EXTT1=
EXTT2=
EXTT3=
EXTT4=
EXTT5=
EXTT6=
EXTT7=
EXTT8=
EXTT9=
EXTT10=
EXTT11=
EXTT12=
EXTT13=
EXTT14=
EXTT15=
EXTT16=
EXTT17=
EXTT18=
EXTT19=
PLAYORDER=
